# xmcd
#
# Track frame offsets: 
#        150
#        12907
#        24951
#        36697
#        49326
#        58017
#        69619
#        79515
#        90507
#        101885
#        115260
#        126506
#        135440
#        147117
#        159046
#        171982
#        180818
#        192018
#        203029
#        215728
#        229831
#        240681
#        251210
#        260290
#        269532
#        278692
#        287784
#        300710
#
# Disc length: 4135 seconds
#
# Revision: 0
# Processed by: cddbd v1.5.2PL0 Copyright (c) Steve Scherf et al.
# Submitted via: ExactAudioCopy v1.2
#
DISCID=9610251c
DTITLE=Tabby Thomas - Down in Louisiana: Tabby Thomas Meets Lonesome
DYEAR=2017
DGENRE=Blues
TTITLE0=Thinking Blues
TTITLE1=Church Member's Ball
TTITLE2=Tomorrow 
TTITLE3=Mmmmm I Don't Care
TTITLE4=Don't Say
TTITLE5=Too Late Blues
TTITLE6=Brother Brown
TTITLE7=So Hard to Bear
TTITLE8=My Baby's Got It
TTITLE9=Tomorrow I'll Be Gone
TTITLE10=Hoodoo Party
TTITLE11=Roll on Ole Mule
TTITLE12=C.C. Rider
TTITLE13=I'd Love to Tell
TTITLE14=Popeye' Train
TTITLE15=He's Got the Whole World in His Hands
TTITLE16=Boogie Woogie Children (Hoodoo Party Alt Take)
TTITLE17=Roll on Ole Mule (Alternative Take)
TTITLE18=Lonesome Sundown - Leave My Money Alone
TTITLE19=Lonesome Sundown - My Home Is a Prison
TTITLE20=Lonesome Sundown - I'm a Mojo Man
TTITLE21=Lonesome Sundown - Don't Go
TTITLE22=Lonesome Sundown - You Know I Love You
TTITLE23=Lonesome Sundown - Gonna Stick to You Baby
TTITLE24=Lonesome Sundown - Learn to Treat Me Better
TTITLE25=Lonesome Sundown - My Home Ain't Here
TTITLE26=Lonesome Sundown - Lonesome Lonely Blues
TTITLE27=Lonesome Sundown - I'm Glad She's Mine
EXTD=
EXTT0=
EXTT1=
EXTT2=
EXTT3=
EXTT4=
EXTT5=
EXTT6=
EXTT7=
EXTT8=
EXTT9=
EXTT10=
EXTT11=
EXTT12=
EXTT13=
EXTT14=
EXTT15=
EXTT16=
EXTT17=
EXTT18=
EXTT19=
EXTT20=
EXTT21=
EXTT22=
EXTT23=
EXTT24=
EXTT25=
EXTT26=
EXTT27=
PLAYORDER=
